<svg xmlns="http://www.w3.org/2000/svg" viewBox="0 0 21 27" fill="none"><path d="M12.231 7.54137C12.231 9.44765 13.5036 11.0554 15.2423 11.5634C15.2109 12.4066 15.0224 13.056 14.6663 13.4959C13.8597 14.5014 12.0844 14.669 10.2043 14.8418C8.72741 14.978 7.1982 15.1246 5.94654 15.7269V8.18554C7.6486 7.65133 8.87931 6.06451 8.87931 4.18966C8.87931 1.87488 7.00442 0 4.68964 0C2.37487 0 0.5 1.87488 0.5 4.18966C0.5 6.06451 1.73071 7.65136 3.43275 8.18554V18.623C1.73071 19.1624 0.5 20.7492 0.5 22.6241C0.5 24.9389 2.37487 26.8137 4.68964 26.8137C7.00442 26.8137 8.87931 24.9389 8.87931 22.6241C8.87931 20.8435 7.76904 19.3195 6.19792 18.7173C6.36027 18.4449 6.60642 18.204 6.97824 18.0155C7.82665 17.586 9.09402 17.4708 10.4399 17.3452C12.65 17.1409 15.1533 16.9052 16.6301 15.0723C17.3633 14.161 17.7352 12.9879 17.7614 11.5163C19.4163 10.9507 20.6103 9.38482 20.6103 7.54137C20.6103 5.22659 18.7354 3.35171 16.4207 3.35171C14.1059 3.35171 12.231 5.22659 12.231 7.54137V7.54137Z" fill="currentColor"/></svg>