<svg xmlns="http://www.w3.org/2000/svg" viewBox="0 0 24.1 23.1" fill="none"><path d="M11.919 3.62787C11.919 3.97394 11.6386 4.25446 11.2924 4.25446H5.91535C5.56918 4.25446 5.28864 4.53505 5.28864 4.88108V10.2583C5.28864 10.6043 5.00805 10.8849 4.66202 10.8849H2.86775C-0.823356 10.8849 -1.06259 16.4103 2.79947 16.4103H4.66202C5.00805 16.4103 5.28864 16.6908 5.28864 17.0369V20.8307C5.28864 22.0517 6.2777 23.0297 7.4988 23.0297L11.0706 23.0345C11.417 23.0348 11.698 22.7541 11.698 22.4078V20.9843C11.698 17.1223 17.6654 17.1907 17.6654 21.3831V22.4094C17.6654 22.7552 17.9455 23.0357 18.2912 23.036L21.8648 23.0407C23.0858 23.0407 24.0748 22.0517 24.0748 20.8307V17.2579C24.0748 16.9118 23.7944 16.6313 23.4482 16.6313H20.9916C17.4615 16.6313 17.4388 10.6639 20.9704 10.6639H23.4482C23.7944 10.6639 24.0748 10.3833 24.0748 10.0373V4.88108C24.0748 4.53505 23.7944 4.25446 23.4482 4.25446H18.0711C17.725 4.25446 17.4444 3.97394 17.4444 3.62787L17.4318 2.33114C17.4318 -0.855038 11.919 -0.701172 11.919 2.3407V3.62787V3.62787Z" fill="currentColor"/></svg>